<svg id="visual" viewBox="0 0 900 450" width="900" height="450" xmlns="http://www.w3.org/2000/svg" xmlns:xlink="http://www.w3.org/1999/xlink" version="1.1"><path d="M728 450L717.5 435C707 420 686 390 698 360C710 330 755 300 765.5 270C776 240 752 210 753.5 180C755 150 782 120 783.5 90C785 60 761 30 749 15L737 0L900 0L900 15C900 30 900 60 900 90C900 120 900 150 900 180C900 210 900 240 900 270C900 300 900 330 900 360C900 390 900 420 900 435L900 450Z" fill="#142d4c"></path><path d="M575 450L539 435C503 420 431 390 426.5 360C422 330 485 300 521 270C557 240 566 210 578 180C590 150 605 120 582.5 90C560 60 500 30 470 15L440 0L738 0L750 15C762 30 786 60 784.5 90C783 120 756 150 754.5 180C753 210 777 240 766.5 270C756 300 711 330 699 360C687 390 708 420 718.5 435L729 450Z" fill="#2b4362"></path><path d="M449 450L420.5 435C392 420 335 390 330.5 360C326 330 374 300 407 270C440 240 458 210 467 180C476 150 476 120 449 90C422 60 368 30 341 15L314 0L441 0L471 15C501 30 561 60 583.5 90C606 120 591 150 579 180C567 210 558 240 522 270C486 300 423 330 427.5 360C432 390 504 420 540 435L576 450Z" fill="#385170"></path><path d="M71 450L75.5 435C80 420 89 390 105.5 360C122 330 146 300 149 270C152 240 134 210 125 180C116 150 116 120 111.5 90C107 60 98 30 93.5 15L89 0L315 0L342 15C369 30 423 60 450 90C477 120 477 150 468 180C459 210 441 240 408 270C375 300 327 330 331.5 360C336 390 393 420 421.5 435L450 450Z" fill="#2b4362"></path><path d="M0 450L0 435C0 420 0 390 0 360C0 330 0 300 0 270C0 240 0 210 0 180C0 150 0 120 0 90C0 60 0 30 0 15L0 0L90 0L94.5 15C99 30 108 60 112.5 90C117 120 117 150 126 180C135 210 153 240 150 270C147 300 123 330 106.5 360C90 390 81 420 76.5 435L72 450Z" fill="#142d4c"></path></svg>