<svg id="visual" viewBox="0 0 450 900" width="450" height="900" xmlns="http://www.w3.org/2000/svg" xmlns:xlink="http://www.w3.org/1999/xlink" version="1.1"><rect x="0" y="0" width="450" height="900" fill="#142d4c"></rect><path d="M237 0L245 0L245 129L228 129L228 257L203 257L203 386L193 386L193 514L224 514L224 643L197 643L197 771L222 771L222 900L0 900L0 771L0 771L0 643L0 643L0 514L0 514L0 386L0 386L0 257L0 257L0 129L0 129L0 0L0 0Z" fill="#385170"></path><path d="M127 0L103 0L103 129L143 129L143 257L141 257L141 386L188 386L188 514L136 514L136 643L111 643L111 771L179 771L179 900L0 900L0 771L0 771L0 643L0 643L0 514L0 514L0 386L0 386L0 257L0 257L0 129L0 129L0 0L0 0Z" fill="#263f5e"></path><path d="M61 0L64 0L64 129L57 129L57 257L106 257L106 386L49 386L49 514L44 514L44 643L73 643L73 771L59 771L59 900L0 900L0 771L0 771L0 643L0 643L0 514L0 514L0 386L0 386L0 257L0 257L0 129L0 129L0 0L0 0Z" fill="#142d4c"></path></svg>